<svg id="flat" height="512" viewBox="0 0 512 512" width="512" xmlns="http://www.w3.org/2000/svg"><path d="m72 184a16 16 0 0 0 -16 16v208h400v-208a16 16 0 0 0 -16-16z" fill="#5771e5"/><circle cx="160" cy="296" fill="#8796c4" r="72"/><path d="m124.68311 319.99658-18.33985-18.33984a7.99915 7.99915 0 0 1 0-11.31348l18.33985-18.33984 11.31347 11.31347-12.6831 12.68311 12.6831 12.68311z" fill="#f7c04a"/><path d="m172.68311 271.99658-12.68311-12.6831-12.68311 12.6831-11.31347-11.31347 18.33984-18.33985a8 8 0 0 1 11.31348 0l18.33984 18.33985z" fill="#f7c04a"/><path d="m160 352a7.97507 7.97507 0 0 1 -5.65674-2.34326l-18.33984-18.33985 11.31347-11.31347 12.68311 12.6831 12.68311-12.6831 11.31347 11.31347-18.33984 18.33985a7.97507 7.97507 0 0 1 -5.65674 2.34326z" fill="#f7c04a"/><path d="m195.31689 319.99658-11.31347-11.31347 12.6831-12.68311-12.6831-12.68311 11.31347-11.31347 18.33985 18.33984a7.99915 7.99915 0 0 1 0 11.31348z" fill="#f7c04a"/><rect fill="#f7c04a" height="22.627" rx="4" transform="matrix(.707 -.707 .707 .707 -162.441 199.833)" width="22.627" x="148.686" y="284.686"/><path d="m488 408v24a15.99555 15.99555 0 0 1 -16 16h-432a15.99555 15.99555 0 0 1 -16-16v-24z" fill="#e4e9f2"/><path d="m304 408a8.00285 8.00285 0 0 1 -2.34009 5.66l-8 8a8.00784 8.00784 0 0 1 -5.65991 2.34h-64a8.00784 8.00784 0 0 1 -5.65991-2.34l-8-8a8.00285 8.00285 0 0 1 -2.34009-5.66z" fill="#a6bce3"/><circle cx="160" cy="120" fill="#5ebd92" r="72"/><path d="m152 120h16v-24h16v-16h-48v16h16z" fill="#b6e3cc"/><path d="m200 112h-16c0 8.67285-10.99072 16-24 16s-24-7.32715-24-16h-16c0 15.45374 13.76428 28.38281 32 31.356v24.644h16v-24.644c18.23572-2.97319 32-15.90226 32-31.356z" fill="#b6e3cc"/><circle cx="352" cy="120" fill="#7ab8f5" r="72"/><g fill="#c4e9ff"><circle cx="352" cy="120" r="8"/><circle cx="352" cy="96" r="8"/><circle cx="328" cy="120" r="8"/><circle cx="376" cy="120" r="8"/><circle cx="400" cy="120" r="8"/><circle cx="304" cy="120" r="8"/><circle cx="352" cy="72" r="8"/><circle cx="352" cy="168" r="8"/><circle cx="352" cy="144" r="8"/><circle cx="328" cy="144" r="8"/><circle cx="328" cy="96" r="8"/><circle cx="376" cy="96" r="8"/><circle cx="376" cy="144" r="8"/></g><circle cx="352" cy="296" fill="#cad8ed" r="72"/><path d="m352 248-32 56 32 32 32-32z" fill="#56679c"/><path d="m384 304-32-8-32 8 32 32z" fill="#6d7eb3"/><circle cx="256" cy="208" fill="#f7c04a" r="80"/><path d="m288 192a24.02687 24.02687 0 0 0 -24-24v-16.00146h-16v16.00146h-16a7.99977 7.99977 0 0 0 -8 8v64a7.99977 7.99977 0 0 0 8 8h16v15.99854h16v-15.99854a23.98452 23.98452 0 0 0 17.86938-40 23.90056 23.90056 0 0 0 6.13062-16zm-48-8h24a8 8 0 0 1 0 16h-24zm24 48h-24v-16h24a8 8 0 0 1 0 16z" fill="#fcedc0"/></svg>