<svg width="40" height="40" viewBox="0 0 40 40" fill="none" xmlns="http://www.w3.org/2000/svg">
<path d="M40 4C40 1.79086 38.2091 0 36 0H4C1.79086 0 0 1.79086 0 4V36C0 38.2091 1.79086 40 4 40H36C38.2091 40 40 38.2091 40 36V4Z" fill="white"/>
<path fill-rule="evenodd" clip-rule="evenodd" d="M35.003 20.3483C35.003 19.262 34.9055 18.2175 34.7245 17.2148H20.2969V23.1405H28.5412C28.1861 25.0553 27.1068 26.6777 25.4844 27.764V31.6076H30.4352C33.3319 28.9408 35.003 25.0135 35.003 20.3483Z" fill="#4285F4"/>
<path fill-rule="evenodd" clip-rule="evenodd" d="M20.295 35.3189C24.4311 35.3189 27.8987 33.9472 30.4333 31.6076L25.4825 27.7639C24.1108 28.6831 22.3561 29.2262 20.295 29.2262C16.3051 29.2262 12.928 26.5315 11.7234 22.9106H6.60547V26.8796C9.12612 31.8861 14.3067 35.3189 20.295 35.3189Z" fill="#34A853"/>
<path fill-rule="evenodd" clip-rule="evenodd" d="M11.7238 22.9103C11.4175 21.9911 11.2434 21.0093 11.2434 19.9997C11.2434 18.99 11.4175 18.0082 11.7238 17.0891V13.1201H6.60593C5.56843 15.1882 4.97656 17.5278 4.97656 19.9997C4.97656 22.4716 5.56843 24.8112 6.60593 26.8793L11.7238 22.9103Z" fill="#FBBC05"/>
<path fill-rule="evenodd" clip-rule="evenodd" d="M20.295 10.7739C22.5441 10.7739 24.5634 11.5468 26.151 13.0648L30.5447 8.67103C27.8918 6.19911 24.4241 4.68115 20.295 4.68115C14.3067 4.68115 9.12612 8.11398 6.60547 13.1205L11.7234 17.0894C12.928 13.4686 16.3051 10.7739 20.295 10.7739Z" fill="#EA4335"/>
</svg>
