<svg xmlns="http://www.w3.org/2000/svg" width="160" height="153" viewBox="0 0 160 153" fill="none"><path d="M154.991 54.2658H104.967C102.801 54.2658 100.882 52.8769 100.213 50.8255L84.7542 3.4403C83.2577 -1.14677 76.7421 -1.14676 75.2457 3.44031L59.7872 50.8255C59.118 52.8769 57.1986 54.2658 55.033 54.2658H5.00852C0.165935 54.2658 -1.84752 60.4377 2.07021 63.2726L42.5408 92.5582C44.2929 93.826 45.026 96.0733 44.3568 98.1247L28.8984 145.51C27.4019 150.097 32.6732 153.911 36.5909 151.076L77.0616 121.791C78.8137 120.523 81.1861 120.523 82.9382 121.791L123.409 151.076C127.327 153.911 132.598 150.097 131.102 145.51L115.643 98.1247C114.974 96.0733 115.707 93.826 117.459 92.5582L157.93 63.2726C161.848 60.4377 159.834 54.2658 154.991 54.2658Z" fill="url(#paint0_linear_94_3890)"></path><defs><linearGradient id="paint0_linear_94_3890" x1="134.172" y1="143.913" x2="40.3051" y2="30.4445" gradientUnits="userSpaceOnUse"><stop stop-color="#15002E"></stop><stop offset="1" stop-color="#5217A3"></stop></linearGradient></defs></svg>