<svg height="512" viewBox="0 0 128 128" width="512" xmlns="http://www.w3.org/2000/svg"><g id="Layer_1"><g><path d="m54.486 60.593c11.769 0 21.343-9.574 21.343-21.343 0-11.768-9.574-21.342-21.343-21.342-11.768 0-21.342 9.574-21.342 21.342 0 11.769 9.574 21.343 21.342 21.343zm0-37.685c9.011 0 16.343 7.331 16.343 16.342s-7.331 16.343-16.343 16.343c-9.011 0-16.342-7.332-16.342-16.343s7.331-16.342 16.342-16.342z"/><path d="m89.341 64.776c-2.288 0-4.497.344-6.581.978-3.831-3.074-8.372-5.081-13.238-5.809-.649-.096-1.311.066-1.841.452-3.854 2.806-8.416 4.289-13.194 4.289-4.789 0-9.365-1.49-13.233-4.308-.522-.38-1.167-.545-1.809-.457-14.236 1.934-24.277 13.763-23.391 27.536v10.178c0 .659.26 1.292.724 1.759 8.208 8.286 23.099 10.195 35.075 10.195.915 0 1.814-.011 2.691-.031 9.352-.217 17.17-1.1 23.305-2.606 3.372 1.993 7.299 3.141 11.491 3.141 12.494 0 22.658-10.165 22.658-22.658.002-12.495-10.163-22.659-22.657-22.659zm-34.912 39.783c-15.442.364-27.227-2.475-33.374-7.995v-9.19c0-.056-.002-.113-.006-.169-.734-10.846 7.002-20.225 18.124-22.183 4.541 3.054 9.813 4.663 15.315 4.663 5.482 0 10.733-1.597 15.255-4.63 2.763.534 5.38 1.585 7.751 3.075-6.48 3.992-10.811 11.151-10.811 19.304 0 5.984 2.336 11.43 6.139 15.484-5.123.925-11.284 1.475-18.393 1.641zm34.912.533c-9.737 0-17.659-7.921-17.659-17.658s7.922-17.658 17.659-17.658 17.659 7.921 17.659 17.658-7.922 17.658-17.659 17.658z"/><path d="m97.908 84.934h-6.067v-6.067c0-1.381-1.119-2.5-2.5-2.5s-2.5 1.119-2.5 2.5v6.067h-6.067c-1.381 0-2.5 1.119-2.5 2.5s1.119 2.5 2.5 2.5h6.067v6.067c0 1.381 1.119 2.5 2.5 2.5s2.5-1.119 2.5-2.5v-6.067h6.067c1.381 0 2.5-1.119 2.5-2.5s-1.119-2.5-2.5-2.5z"/></g></g></svg>