<svg id="Capa_1" enable-background="new 0 0 512 512" height="512" viewBox="0 0 512 512" width="512" xmlns="http://www.w3.org/2000/svg"><g><path d="m502 137.992h-25.158c7.412-12.638 9.937-29.003 7.513-48.932-3.819-31.406-16.21-51.381-36.827-59.368-45.291-17.545-113.986 31.808-147.985 59.946-9.689-9.083-24.558-14.06-43.543-14.06s-33.854 4.977-43.543 14.06c-33.961-28.108-102.684-77.501-147.989-59.944-20.614 7.988-33.003 27.962-36.822 59.366-2.424 19.928.101 36.294 7.513 48.932h-25.159c-5.522 0-10 4.478-10 10v79.999c0 5.522 4.478 10 10 10h16v237.998c0 5.522 4.478 10 10 10h440c5.522 0 10-4.478 10-10v-237.998h16c5.522 0 10-4.478 10-10v-79.999c0-5.522-4.478-10-10-10zm-61.696-89.649c13.197 5.112 21.339 19.624 24.198 43.132 3.555 29.242-5.984 40.654-14.24 46.518h-117.669c17.87-8.898 41.177-18.92 62.988-24.533 5.349-1.377 8.568-6.828 7.192-12.177-1.376-5.348-6.822-8.568-12.177-7.192-27.799 7.154-58.056 20.941-78.441 31.923.14-1.486.211-2.962.211-4.423 0-5.354-.729-10.308-2.14-14.824 43.851-36.728 99.585-70.242 130.078-58.424zm-229.304 169.648v-59.999h90v59.999zm70 20v227.998h-50v-227.998zm-25-142.413c24.132 0 36.367 8.752 36.367 26.012 0 5.231-1.558 10.931-4.442 16.402h-63.85c-2.884-5.472-4.442-11.173-4.442-16.402 0-17.26 12.235-26.012 36.367-26.012zm-208.501-4.103c2.858-23.507 10.999-38.018 24.195-43.132 30.489-11.814 86.239 21.705 130.078 58.423-1.412 4.517-2.14 9.47-2.14 14.824 0 1.461.071 2.937.211 4.423-20.386-10.982-50.643-24.769-78.441-31.923-5.347-1.375-10.801 1.844-12.177 7.192s1.844 10.8 7.192 12.177c21.811 5.613 45.117 15.635 62.988 24.533h-117.666c-8.256-5.864-17.796-17.276-14.24-46.517zm-27.499 66.517h171v59.999h-171zm26 79.999h165v227.998h-165zm420 227.998h-165v-227.998h165zm26-247.998h-171v-59.999h171z"/></g></svg>