<svg id="Layer_1" enable-background="new 0 0 512 512" height="512" viewBox="0 0 512 512" width="512" xmlns="http://www.w3.org/2000/svg"><g><g><path d="m504.5 299.056c4.143 0 7.5-3.358 7.5-7.5v-231.556c0-11.855-9.645-21.5-21.5-21.5h-57v-5.5c0-6.341-5.159-11.5-11.5-11.5h-264.777c-9.931.344-9.923 14.659 0 15h261.277v225h-325v-225h28.611c9.931-.344 9.923-14.659 0-15h-32.111c-6.341 0-11.5 5.159-11.5 11.5v5.5h-57c-11.855 0-21.5 9.645-21.5 21.5v320c0 11.855 9.645 21.5 21.5 21.5h142v44h-10.5c-16.267 0-29.5 13.234-29.5 29.5v3.269c0 6.744 5.486 12.231 12.23 12.231h240.54c6.744 0 12.23-5.487 12.23-12.231v-3.269c0-16.266-13.233-29.5-29.5-29.5h-10.5v-44h142c11.855 0 21.5-9.645 21.5-21.5v-52.889c-.344-9.931-14.659-9.923-15 0v52.889c0 3.584-2.916 6.5-6.5 6.5h-469c-3.584 0-6.5-2.916-6.5-6.5v-320c0-3.584 2.916-6.5 6.5-6.5h57v15h-37c-6.341 0-11.5 5.159-11.5 11.5v246c0 6.341 5.159 11.5 11.5 11.5h429c6.341 0 11.5-5.159 11.5-11.5v-246c0-6.341-5.159-11.5-11.5-11.5h-37v-15h57c3.584 0 6.5 2.916 6.5 6.5v231.556c0 4.142 3.357 7.5 7.5 7.5zm-131 175.944v.5h-235v-.5c0-7.995 6.505-14.5 14.5-14.5h206c7.995 0 14.5 6.505 14.5 14.5zm-96.29-73.5c-7.091 19.881-35.336 19.869-42.42 0zm-57.957 0c8.694 39.756 64.816 39.728 73.494 0h40.753v44h-155v-44zm247.747-318v239h-422v-239h33.5v181.5c0 6.341 5.159 11.5 11.5 11.5h332c6.341 0 11.5-5.159 11.5-11.5v-181.5z"/><path d="m119.919 145.167v20.175c0 10.042 8.169 18.211 18.211 18.211h78.578c10.042 0 18.211-8.169 18.211-18.211v-20.175c0-14.227-9.755-26.217-22.927-29.636 1.884-4.472 2.927-9.382 2.927-14.531v-11.947c-1.891-49.693-73.127-49.655-75 0v12.054c0 5.113 1.033 9.989 2.896 14.433-13.156 3.43-22.896 15.411-22.896 29.627zm100 0v20.175c0 1.771-1.44 3.211-3.211 3.211h-78.578c-1.771 0-3.211-1.44-3.211-3.211v-20.175c0-8.609 7.004-15.614 15.613-15.614h2.521c13.197 11.896 35.464 11.872 48.663 0h2.589c8.61 0 15.614 7.005 15.614 15.614zm-65-56.114c1.135-29.816 43.876-29.793 45 0v11.947c-1.108 29.786-43.85 29.929-45 .107z"/><path d="m135.59 195c-8.641 0-15.671 7.03-15.671 15.671v13.658c0 8.641 7.03 15.671 15.671 15.671h83.658c8.641 0 15.671-7.03 15.671-15.671v-13.658c0-8.641-7.03-15.671-15.671-15.671zm84.329 15.671v13.658c0 .37-.301.671-.671.671h-83.658c-.37 0-.671-.301-.671-.671v-13.658c0-.37.301-.671.671-.671h83.658c.37 0 .671.301.671.671z"/><path d="m383.637 133.514c-8.227-50.045-64.55-67.704-99.776-35.592-33.574 29.92-17.327 92.553 18.226 112.759 3.504 2.091 8.152.964 10.275-2.633 2.109-3.564.931-8.165-2.633-10.274-17.045-10.091-29.416-33.296-29.416-55.176 1.405-57.607 79.396-61.965 88.552-6.47.722 4.079 4.61 6.797 8.692 6.079 4.08-.723 6.8-4.614 6.08-8.693z"/><path d="m373.793 176.858c1.823 0 3.651-.661 5.094-1.997 3.039-2.814 3.222-7.56.407-10.599-15.05-16.252-23.568-31.298-26.533-37.012-4.878-8.657-17.581-2.059-13.314 6.906 3.244 6.255 12.549 22.704 28.842 40.297 1.478 1.597 3.487 2.405 5.504 2.405z"/><path d="m315.927 126.729c2.717-1.413 5.76-2.086 8.795-1.953 9.933.083 10.568-14.197.668-14.985-5.657-.248-11.331 1.002-16.381 3.629-7.692 3.997-13.367 10.751-15.978 19.017-2.609 8.264-1.846 17.051 2.153 24.746 4.605 8.853 17.769 31.97 40.47 55.383 2.885 2.976 7.634 3.045 10.605.164 2.974-2.883 3.047-7.632.164-10.605-21.324-21.994-33.631-43.597-37.931-51.861-2.15-4.138-2.562-8.865-1.158-13.31s4.455-8.076 8.593-10.225z"/><path d="m355.011 196.016c2.953 2.901 7.702 2.86 10.605-.096 2.902-2.955 2.86-7.704-.096-10.606-17.102-16.796-30.241-39.875-30.372-40.106-5.184-8.476-17.641-1.431-13.061 7.376.575 1.018 14.276 25.118 32.924 43.432z"/><path d="m426 353.833c-9.931.344-9.923 14.659 0 15h12.132c9.931-.344 9.923-14.659 0-15z"/><path d="m385.935 353.833c-9.931.344-9.923 14.659 0 15h12.131c9.931-.344 9.923-14.659 0-15z"/></g></g></svg>